<svg width="192" height="178" viewBox="0 0 192 178" fill="none" xmlns="http://www.w3.org/2000/svg">
<g filter="url(#filter0_i_414_9)">
<path d="M175.605 54.8143C175.968 52.7622 176.157 50.6512 176.157 48.4966C176.157 28.3401 159.606 12 139.19 12C124.012 12 110.971 21.0306 105.278 33.9464C100.666 30.015 94.6807 27.6414 88.1405 27.6414C73.5574 27.6414 61.7355 39.4425 61.7355 54C61.7355 54.8106 61.7722 55.6127 61.8439 56.4047C54.8298 59.7966 50 66.9139 50 75.1448C50 86.6628 59.4575 96 71.124 96H170.876C182.542 96 192 86.6628 192 75.1448C192 65.232 184.995 56.9344 175.605 54.8143Z" fill="url(#paint0_linear_414_9)"/>
</g>
<g clip-path="url(#clip0_414_9)">
<path d="M135.71 39.5706C135.919 39.4417 136.141 39.326 136.37 39.2373C136.854 39.0496 137.187 38.7079 137.309 38.2192C137.486 37.5026 138.042 37.1863 138.644 37.1077C139.801 36.9568 140.523 36.1876 141.14 35.3821C141.6 34.7809 141.773 33.9555 141.488 33.148C141.422 32.9615 141.417 32.8113 141.492 32.5934C141.587 32.3208 141.482 31.9749 141.447 31.6623C141.108 28.596 139.899 25.8553 138.295 23.2633C138.143 23.0183 137.992 22.7737 137.839 22.53C137.445 21.9033 137.283 21.2266 137.191 20.4836C136.995 18.9121 136.936 17.3186 136.458 15.7835C135.963 14.1969 135.999 12.5797 136.288 10.9459C136.438 10.1019 136.404 9.22685 136.491 8.36971C136.691 6.40358 137.151 4.50318 138.11 2.75931C138.538 1.98232 139.037 1.24348 139.529 0.50387C139.732 0.199148 139.972 -0.122761 140.433 0.0470176C140.676 0.136338 140.998 0.75349 140.978 1.08873C140.973 1.18368 140.925 1.27986 140.935 1.37134C140.957 1.56377 141.002 1.75343 141.039 1.94425C141.093 2.23002 141.164 2.51401 141.198 2.80201C141.229 3.06835 141.221 3.3397 141.228 3.60882C141.236 3.92295 141.259 4.23799 141.243 4.55089C141.217 5.07032 141.183 5.56809 141.442 6.06895C141.583 6.33969 141.504 6.71639 141.567 7.03676C141.633 7.37477 141.758 7.70084 141.844 8.03508C141.974 8.53694 142.118 9.03718 142.212 9.54621C142.376 10.4319 142.48 11.3294 142.658 12.2123C142.891 13.3653 143.177 14.5073 143.427 15.6572C143.533 16.1493 143.594 16.6512 143.695 17.1448C143.729 17.3149 143.826 17.4715 143.883 17.6382C143.98 17.9252 144.069 18.2148 144.157 18.5047C144.173 18.5556 144.151 18.6211 144.172 18.6672C144.457 19.2704 144.749 19.8703 145.036 20.4724C145.192 20.7994 145.344 21.1286 145.495 21.4578C145.523 21.5195 145.532 21.5902 145.56 21.6516C146.169 22.9319 146.817 24.1953 147.378 25.4961C147.996 26.9319 148.416 28.4245 148.6 29.9951C148.788 31.5955 149.102 33.1824 149.4 34.7679C149.492 35.2549 149.704 35.7218 149.884 36.1885C150 36.4897 150.427 36.6504 150.76 36.5727C152.522 36.1614 154.29 35.7168 156.107 35.7483C157.195 35.7672 158.277 36.0382 159.364 36.1735C162.655 36.5822 165.946 36.9954 169.24 37.3768C171.56 37.6456 173.886 37.6956 176.207 37.3485C176.329 37.3302 176.452 37.3233 176.576 37.3198C176.611 37.3189 176.648 37.3478 176.774 37.4017C176.597 37.5264 176.489 37.6541 176.357 37.6874C175.775 37.8336 175.188 37.9626 174.598 38.0789C174.105 38.1764 173.596 38.2088 173.112 38.3386C171.998 38.638 170.892 38.5191 169.774 38.3896C168.841 38.2815 167.902 38.1955 166.964 38.1707C166.609 38.1613 166.254 38.384 165.889 38.4398C165.493 38.5009 165.086 38.4999 164.683 38.5103C164.223 38.5222 163.762 38.5141 163.302 38.5194C162.81 38.5254 162.308 38.4763 161.829 38.5596C161.053 38.6949 160.291 38.9162 159.525 39.1055C158.76 39.2944 157.998 39.4931 157.233 39.6796C156.693 39.8113 156.15 39.9317 155.607 40.0509C155.53 40.0679 155.431 40.0789 155.367 40.0453C155.07 39.889 154.906 39.9978 154.839 40.3427C154.495 40.2386 154.185 40.1446 153.874 40.0506C153.85 40.0868 153.826 40.1229 153.802 40.159C155.119 41.0423 156.412 41.9636 157.758 42.798C159.114 43.6379 160.662 44.0058 162.228 44.2982C162.221 44.3637 162.213 44.429 162.206 44.4948C161.857 44.547 161.492 44.6903 161.162 44.6335C160.351 44.4938 159.557 44.2606 158.755 44.0678C158.595 44.0294 158.461 43.952 158.3 44.1567C158.213 44.2675 157.916 44.2467 157.718 44.23C157.227 44.1885 156.74 44.0967 156.25 44.0617C155.941 44.0398 155.628 44.0844 155.316 44.0973C155.195 44.1023 155.044 44.1504 154.956 44.0973C154.225 43.6536 153.411 43.82 152.639 43.8096C151.395 43.7929 150.147 43.8627 148.906 43.9517C147.693 44.0385 146.549 43.8231 145.445 43.3477C143.97 42.7129 142.465 42.1884 140.894 41.829C140.014 41.6275 139.128 41.408 138.367 40.8206C137.686 40.2949 136.872 40.2829 136.059 40.5798C135.655 40.7276 135.239 40.8446 134.744 41.0023C134.877 40.3215 135.203 39.8819 135.71 39.5706Z" fill="#818494"/>
</g>
<g clip-path="url(#clip1_414_9)">
<path d="M162.963 76.2487C163.066 76.1854 163.175 76.1286 163.287 76.0851C163.525 75.9929 163.689 75.8252 163.748 75.5853C163.836 75.2335 164.108 75.0782 164.404 75.0396C164.972 74.9655 165.326 74.588 165.629 74.1925C165.855 73.8974 165.94 73.4922 165.8 73.0958C165.768 73.0042 165.765 72.9305 165.802 72.8235C165.848 72.6897 165.797 72.5199 165.78 72.3665C165.614 70.8612 165.02 69.5157 164.232 68.2433C164.158 68.123 164.084 68.0029 164.008 67.8833C163.815 67.5756 163.736 67.2435 163.691 66.8787C163.595 66.1072 163.566 65.325 163.331 64.5714C163.088 63.7925 163.105 62.9986 163.248 62.1966C163.321 61.7823 163.304 61.3527 163.347 60.9319C163.445 59.9667 163.671 59.0338 164.142 58.1777C164.352 57.7963 164.597 57.4336 164.839 57.0705C164.938 56.9209 165.056 56.7629 165.282 56.8462C165.401 56.89 165.56 57.193 165.55 57.3576C165.547 57.4042 165.524 57.4514 165.529 57.4963C165.539 57.5908 165.561 57.6839 165.579 57.7776C165.606 57.9179 165.641 58.0573 165.658 58.1987C165.673 58.3294 165.669 58.4626 165.672 58.5947C165.676 58.7489 165.688 58.9036 165.68 59.0572C165.667 59.3122 165.65 59.5565 165.778 59.8024C165.846 59.9353 165.808 60.1203 165.839 60.2775C165.871 60.4435 165.932 60.6035 165.975 60.7676C166.039 61.014 166.109 61.2596 166.155 61.5094C166.236 61.9443 166.287 62.3848 166.375 62.8182C166.489 63.3842 166.629 63.9449 166.752 64.5094C166.804 64.751 166.834 64.9973 166.883 65.2396C166.9 65.3232 166.948 65.4 166.976 65.4819C167.023 65.6228 167.067 65.7649 167.11 65.9072C167.118 65.9323 167.107 65.9644 167.118 65.987C167.258 66.2831 167.401 66.5776 167.542 66.8732C167.618 67.0337 167.693 67.1953 167.767 67.357C167.781 67.3872 167.785 67.422 167.799 67.4521C168.098 68.0806 168.416 68.7008 168.691 69.3394C168.995 70.0442 169.201 70.7769 169.291 71.548C169.384 72.3337 169.538 73.1127 169.684 73.891C169.729 74.1301 169.833 74.3593 169.922 74.5884C169.979 74.7363 170.188 74.8151 170.352 74.777C171.217 74.5751 172.085 74.3568 172.977 74.3723C173.511 74.3815 174.042 74.5146 174.576 74.581C176.191 74.7817 177.806 74.9845 179.423 75.1717C180.563 75.3037 181.704 75.3282 182.844 75.1578C182.904 75.1489 182.964 75.1455 183.025 75.1438C183.042 75.1433 183.06 75.1575 183.122 75.1839C183.035 75.2452 182.982 75.3079 182.918 75.3242C182.632 75.396 182.343 75.4593 182.054 75.5164C181.812 75.5643 181.562 75.5802 181.325 75.6439C180.778 75.7909 180.234 75.7325 179.686 75.6689C179.228 75.6158 178.767 75.5737 178.307 75.5615C178.132 75.5569 177.958 75.6662 177.779 75.6936C177.584 75.7236 177.384 75.7231 177.187 75.7282C176.961 75.734 176.735 75.73 176.509 75.7326C176.267 75.7356 176.021 75.7115 175.785 75.7524C175.404 75.8188 175.031 75.9274 174.654 76.0203C174.279 76.1131 173.905 76.2106 173.529 76.3022C173.264 76.3669 172.998 76.426 172.731 76.4845C172.693 76.4928 172.645 76.4982 172.613 76.4817C172.468 76.405 172.387 76.4584 172.354 76.6277C172.185 76.5766 172.033 76.5305 171.88 76.4843C171.869 76.5021 171.857 76.5198 171.845 76.5376C172.491 76.9712 173.126 77.4234 173.787 77.8331C174.453 78.2454 175.213 78.426 175.981 78.5695C175.978 78.6016 175.974 78.6337 175.971 78.666C175.799 78.6916 175.62 78.762 175.458 78.7341C175.06 78.6655 174.67 78.551 174.277 78.4564C174.198 78.4376 174.132 78.3996 174.053 78.5001C174.01 78.5544 173.865 78.5442 173.767 78.536C173.526 78.5157 173.288 78.4706 173.047 78.4534C172.895 78.4426 172.741 78.4645 172.588 78.4709C172.529 78.4733 172.455 78.497 172.412 78.4709C172.053 78.2531 171.653 78.3347 171.274 78.3297C170.663 78.3215 170.051 78.3557 169.441 78.3994C168.846 78.442 168.285 78.3363 167.742 78.1029C167.019 77.7913 166.279 77.5338 165.508 77.3574C165.076 77.2584 164.642 77.1507 164.268 76.8623C163.933 76.6043 163.534 76.5984 163.135 76.7441C162.936 76.8167 162.732 76.8741 162.489 76.9515C162.555 76.6173 162.714 76.4015 162.963 76.2487Z" fill="#818494"/>
</g>
<g clip-path="url(#clip2_414_9)">
<path d="M132.117 70.5663C132.219 70.503 132.328 70.4463 132.441 70.4027C132.679 70.3105 132.842 70.1428 132.902 69.9029C132.989 69.5511 133.262 69.3959 133.557 69.3572C134.125 69.2832 134.48 68.9056 134.782 68.5101C135.008 68.215 135.093 67.8098 134.953 67.4134C134.921 67.3219 134.919 67.2481 134.955 67.1411C135.002 67.0073 134.95 66.8375 134.933 66.6841C134.767 65.1788 134.173 63.8334 133.386 62.5609C133.311 62.4406 133.237 62.3205 133.162 62.2009C132.969 61.8933 132.889 61.5611 132.844 61.1963C132.748 60.4249 132.719 59.6426 132.484 58.889C132.241 58.1101 132.259 57.3162 132.401 56.5142C132.474 56.0999 132.457 55.6703 132.5 55.2495C132.599 54.2843 132.824 53.3514 133.295 52.4953C133.505 52.1139 133.75 51.7512 133.992 51.3881C134.091 51.2385 134.209 51.0805 134.435 51.1638C134.554 51.2077 134.713 51.5106 134.703 51.6752C134.7 51.7218 134.677 51.769 134.682 51.8139C134.692 51.9084 134.715 52.0015 134.733 52.0952C134.759 52.2355 134.794 52.3749 134.811 52.5163C134.826 52.647 134.822 52.7802 134.826 52.9123C134.83 53.0666 134.841 53.2212 134.833 53.3748C134.82 53.6298 134.803 53.8742 134.931 54.1201C135 54.253 134.961 54.4379 134.992 54.5952C135.025 54.7611 135.086 54.9212 135.128 55.0852C135.192 55.3316 135.262 55.5772 135.309 55.8271C135.389 56.2619 135.44 56.7024 135.528 57.1359C135.642 57.7019 135.783 58.2625 135.905 58.827C135.957 59.0686 135.987 59.315 136.037 59.5573C136.054 59.6408 136.101 59.7176 136.129 59.7995C136.177 59.9404 136.221 60.0825 136.264 60.2249C136.271 60.2499 136.26 60.282 136.271 60.3047C136.411 60.6007 136.554 60.8952 136.695 61.1908C136.771 61.3513 136.846 61.513 136.92 61.6746C136.934 61.7049 136.938 61.7396 136.953 61.7697C137.251 62.3982 137.569 63.0185 137.845 63.657C138.148 64.3619 138.354 65.0946 138.445 65.8656C138.537 66.6513 138.691 67.4303 138.838 68.2086C138.883 68.4477 138.986 68.6769 139.075 68.906C139.132 69.0539 139.342 69.1328 139.505 69.0946C140.37 68.8927 141.238 68.6745 142.13 68.6899C142.664 68.6992 143.195 68.8322 143.729 68.8986C145.345 69.0993 146.96 69.3021 148.577 69.4893C149.716 69.6213 150.858 69.6459 151.997 69.4755C152.057 69.4665 152.118 69.4631 152.178 69.4614C152.196 69.4609 152.213 69.4751 152.275 69.5016C152.189 69.5628 152.136 69.6255 152.071 69.6419C151.785 69.7136 151.497 69.7769 151.208 69.834C150.965 69.8819 150.715 69.8978 150.478 69.9615C149.931 70.1085 149.388 70.0501 148.839 69.9865C148.381 69.9335 147.92 69.8913 147.46 69.8791C147.285 69.8745 147.111 69.9838 146.932 70.0112C146.737 70.0412 146.538 70.0407 146.34 70.0458C146.114 70.0517 145.888 70.0476 145.662 70.0503C145.42 70.0532 145.174 70.0291 144.939 70.07C144.558 70.1364 144.184 70.2451 143.808 70.338C143.433 70.4307 143.058 70.5283 142.683 70.6198C142.418 70.6845 142.151 70.7436 141.885 70.8021C141.847 70.8104 141.798 70.8158 141.767 70.7993C141.621 70.7226 141.541 70.776 141.508 70.9453C141.339 70.8942 141.186 70.8481 141.034 70.802C141.022 70.8197 141.01 70.8374 140.998 70.8552C141.645 71.2888 142.279 71.741 142.941 72.1507C143.606 72.563 144.366 72.7436 145.135 72.8872C145.131 72.9193 145.128 72.9514 145.124 72.9836C144.953 73.0093 144.774 73.0796 144.611 73.0517C144.213 72.9832 143.823 72.8687 143.43 72.774C143.351 72.7552 143.286 72.7172 143.206 72.8177C143.164 72.8721 143.018 72.8618 142.921 72.8537C142.68 72.8333 142.441 72.7882 142.2 72.771C142.048 72.7603 141.895 72.7822 141.742 72.7885C141.682 72.7909 141.608 72.8146 141.565 72.7885C141.206 72.5707 140.806 72.6524 140.427 72.6473C139.817 72.6391 139.204 72.6734 138.595 72.7171C138 72.7597 137.438 72.6539 136.896 72.4205C136.172 72.1089 135.433 71.8514 134.662 71.675C134.229 71.5761 133.795 71.4683 133.421 71.1799C133.087 70.9219 132.687 70.916 132.288 71.0617C132.09 71.1343 131.886 71.1917 131.642 71.2692C131.708 70.9349 131.868 70.7191 132.117 70.5663Z" fill="#818494"/>
</g>
<path d="M138.19 108.1C138.19 146.257 107.257 177.19 69.1 177.19C30.9425 177.19 0.00976562 146.257 0.00976562 108.1C0.00976562 69.9424 30.9425 39.0097 69.1 39.0097C107.257 39.0097 138.19 69.9424 138.19 108.1Z" fill="url(#paint1_linear_414_9)"/>
<defs>
<filter id="filter0_i_414_9" x="50" y="12" width="142" height="94" filterUnits="userSpaceOnUse" color-interpolation-filters="sRGB">
<feFlood flood-opacity="0" result="BackgroundImageFix"/>
<feBlend mode="normal" in="SourceGraphic" in2="BackgroundImageFix" result="shape"/>
<feColorMatrix in="SourceAlpha" type="matrix" values="0 0 0 0 0 0 0 0 0 0 0 0 0 0 0 0 0 0 127 0" result="hardAlpha"/>
<feOffset dy="11"/>
<feGaussianBlur stdDeviation="5"/>
<feComposite in2="hardAlpha" operator="arithmetic" k2="-1" k3="1"/>
<feColorMatrix type="matrix" values="0 0 0 0 1 0 0 0 0 1 0 0 0 0 1 0 0 0 1 0"/>
<feBlend mode="normal" in2="shape" result="effect1_innerShadow_414_9"/>
</filter>
<linearGradient id="paint0_linear_414_9" x1="59.0318" y1="88.5" x2="201.923" y2="-18.7335" gradientUnits="userSpaceOnUse">
<stop stop-color="white"/>
<stop offset="1" stop-color="white" stop-opacity="0.58"/>
</linearGradient>
<linearGradient id="paint1_linear_414_9" x1="96.9316" y1="45.4063" x2="38.723" y2="177.175" gradientUnits="userSpaceOnUse">
<stop stop-color="#FFD88B"/>
<stop offset="1" stop-color="#FFA900"/>
</linearGradient>
<clipPath id="clip0_414_9">
<rect width="44.6467" height="44.6467" fill="white" transform="matrix(-1 0 0 1 178.082 0)"/>
</clipPath>
<clipPath id="clip1_414_9">
<rect width="21.9175" height="21.9175" fill="white" transform="matrix(-1 0 0 1 183.764 56.8231)"/>
</clipPath>
<clipPath id="clip2_414_9">
<rect width="21.9175" height="21.9175" fill="white" transform="matrix(-1 0 0 1 152.917 51.1408)"/>
</clipPath>
</defs>
</svg>
