<svg width="213" height="203" viewBox="0 0 213 203" fill="none" xmlns="http://www.w3.org/2000/svg">
<g filter="url(#filter0_i_411_5)">
<path d="M196.605 62.8143C196.968 60.7622 197.157 58.6512 197.157 56.4966C197.157 36.3401 180.606 20 160.19 20C145.012 20 131.971 29.0306 126.278 41.9464C121.666 38.015 115.681 35.6414 109.14 35.6414C94.5574 35.6414 82.7355 47.4425 82.7355 62C82.7355 62.8106 82.7722 63.6127 82.8439 64.4047C75.8298 67.7966 71 74.9139 71 83.1448C71 94.6628 80.4575 104 92.124 104H191.876C203.542 104 213 94.6628 213 83.1448C213 73.232 205.995 64.9344 196.605 62.8143Z" fill="url(#paint0_linear_411_5)"/>
</g>
<g clip-path="url(#clip0_411_5)">
<path d="M157.709 39.5706C157.919 39.4417 158.141 39.326 158.37 39.2373C158.854 39.0496 159.187 38.7079 159.309 38.2192C159.486 37.5026 160.042 37.1863 160.643 37.1077C161.8 36.9568 162.523 36.1876 163.139 35.3821C163.599 34.7809 163.773 33.9555 163.488 33.148C163.422 32.9615 163.417 32.8113 163.492 32.5934C163.586 32.3208 163.481 31.9749 163.447 31.6623C163.108 28.596 161.899 25.8553 160.295 23.2633C160.143 23.0183 159.991 22.7737 159.838 22.53C159.445 21.9033 159.283 21.2266 159.191 20.4836C158.995 18.9121 158.936 17.3186 158.458 15.7835C157.963 14.1969 157.999 12.5797 158.288 10.9459C158.438 10.1019 158.404 9.22685 158.491 8.36971C158.691 6.40358 159.15 4.50318 160.11 2.75931C160.538 1.98232 161.037 1.24348 161.529 0.50387C161.732 0.199148 161.972 -0.122761 162.433 0.0470176C162.675 0.136338 162.998 0.75349 162.978 1.08873C162.972 1.18368 162.925 1.27986 162.935 1.37134C162.956 1.56377 163.002 1.75343 163.038 1.94425C163.093 2.23002 163.164 2.51401 163.198 2.80201C163.229 3.06835 163.221 3.3397 163.228 3.60882C163.236 3.92295 163.259 4.23799 163.243 4.55089C163.216 5.07032 163.182 5.56809 163.442 6.06895C163.582 6.33969 163.504 6.71639 163.567 7.03676C163.633 7.37477 163.758 7.70084 163.844 8.03508C163.974 8.53694 164.118 9.03718 164.212 9.54621C164.376 10.4319 164.48 11.3294 164.658 12.2123C164.89 13.3653 165.177 14.5073 165.426 15.6572C165.533 16.1493 165.594 16.6512 165.694 17.1448C165.729 17.3149 165.826 17.4715 165.883 17.6382C165.98 17.9252 166.069 18.2148 166.157 18.5047C166.173 18.5556 166.15 18.6211 166.172 18.6672C166.457 19.2704 166.748 19.8703 167.035 20.4724C167.191 20.7994 167.344 21.1286 167.495 21.4578C167.523 21.5195 167.531 21.5902 167.56 21.6516C168.168 22.9319 168.817 24.1953 169.377 25.4961C169.996 26.9319 170.415 28.4245 170.6 29.9951C170.788 31.5955 171.101 33.1824 171.4 34.7679C171.492 35.2549 171.703 35.7218 171.884 36.1885C172 36.4897 172.427 36.6504 172.76 36.5727C174.522 36.1614 176.29 35.7168 178.107 35.7483C179.195 35.7672 180.277 36.0382 181.364 36.1735C184.655 36.5822 187.945 36.9954 191.239 37.3768C193.56 37.6456 195.886 37.6956 198.207 37.3485C198.329 37.3302 198.452 37.3233 198.575 37.3198C198.611 37.3189 198.647 37.3478 198.773 37.4017C198.597 37.5264 198.489 37.6541 198.357 37.6874C197.775 37.8336 197.187 37.9626 196.598 38.0789C196.105 38.1764 195.596 38.2088 195.112 38.3386C193.998 38.638 192.891 38.5191 191.774 38.3896C190.841 38.2815 189.902 38.1955 188.964 38.1707C188.609 38.1613 188.253 38.384 187.889 38.4398C187.492 38.5009 187.085 38.4999 186.682 38.5103C186.222 38.5222 185.762 38.5141 185.302 38.5194C184.81 38.5254 184.308 38.4763 183.828 38.5596C183.052 38.6949 182.291 38.9162 181.525 39.1055C180.76 39.2944 179.998 39.4931 179.233 39.6796C178.693 39.8113 178.15 39.9317 177.607 40.0509C177.53 40.0679 177.431 40.0789 177.366 40.0453C177.07 39.889 176.906 39.9978 176.839 40.3427C176.495 40.2386 176.185 40.1446 175.874 40.0506C175.85 40.0868 175.826 40.1229 175.802 40.159C177.118 41.0423 178.411 41.9636 179.758 42.798C181.114 43.6379 182.662 44.0058 184.228 44.2982C184.22 44.3637 184.213 44.429 184.206 44.4948C183.857 44.547 183.492 44.6903 183.161 44.6335C182.351 44.4938 181.557 44.2606 180.755 44.0678C180.595 44.0294 180.461 43.952 180.299 44.1567C180.212 44.2675 179.915 44.2467 179.718 44.23C179.227 44.1885 178.74 44.0967 178.249 44.0617C177.941 44.0398 177.627 44.0844 177.316 44.0973C177.195 44.1023 177.044 44.1504 176.956 44.0973C176.225 43.6536 175.41 43.82 174.638 43.8096C173.395 43.7929 172.147 43.8627 170.905 43.9517C169.693 44.0385 168.549 43.8231 167.444 43.3477C165.97 42.7129 164.464 42.1884 162.894 41.829C162.013 41.6275 161.128 41.408 160.367 40.8206C159.686 40.2949 158.872 40.2829 158.059 40.5798C157.654 40.7276 157.239 40.8446 156.743 41.0023C156.877 40.3215 157.202 39.8819 157.709 39.5706Z" fill="#818494"/>
</g>
<g clip-path="url(#clip1_411_5)">
<path d="M184.963 76.2487C185.066 76.1854 185.175 76.1286 185.287 76.0851C185.525 75.9929 185.689 75.8252 185.748 75.5853C185.835 75.2335 186.108 75.0782 186.403 75.0396C186.971 74.9655 187.326 74.588 187.629 74.1925C187.855 73.8974 187.94 73.4922 187.8 73.0958C187.768 73.0042 187.765 72.9305 187.802 72.8235C187.848 72.6897 187.797 72.5199 187.78 72.3665C187.613 70.8612 187.02 69.5157 186.232 68.2433C186.158 68.123 186.083 68.0029 186.008 67.8833C185.815 67.5756 185.736 67.2435 185.69 66.8787C185.594 66.1072 185.565 65.325 185.33 64.5714C185.088 63.7925 185.105 62.9986 185.247 62.1966C185.321 61.7823 185.304 61.3527 185.347 60.9319C185.445 59.9667 185.671 59.0338 186.142 58.1777C186.352 57.7963 186.597 57.4336 186.838 57.0705C186.938 56.9209 187.056 56.7629 187.282 56.8462C187.401 56.89 187.559 57.193 187.55 57.3576C187.547 57.4042 187.524 57.4514 187.529 57.4963C187.539 57.5908 187.561 57.6839 187.579 57.7776C187.606 57.9179 187.641 58.0573 187.657 58.1987C187.673 58.3294 187.669 58.4626 187.672 58.5947C187.676 58.7489 187.687 58.9036 187.679 59.0572C187.667 59.3122 187.65 59.5565 187.777 59.8024C187.846 59.9353 187.808 60.1203 187.838 60.2775C187.871 60.4435 187.932 60.6035 187.975 60.7676C188.039 61.014 188.109 61.2596 188.155 61.5094C188.236 61.9443 188.287 62.3848 188.374 62.8182C188.488 63.3842 188.629 63.9449 188.751 64.5094C188.804 64.751 188.834 64.9973 188.883 65.2396C188.9 65.3232 188.948 65.4 188.975 65.4819C189.023 65.6228 189.067 65.7649 189.11 65.9072C189.118 65.9323 189.107 65.9644 189.118 65.987C189.257 66.2831 189.4 66.5776 189.541 66.8732C189.618 67.0337 189.693 67.1953 189.767 67.357C189.781 67.3872 189.785 67.422 189.799 67.4521C190.098 68.0806 190.416 68.7008 190.691 69.3394C190.995 70.0442 191.201 70.7769 191.291 71.548C191.383 72.3337 191.537 73.1127 191.684 73.891C191.729 74.1301 191.833 74.3593 191.921 74.5884C191.979 74.7363 192.188 74.8151 192.351 74.777C193.216 74.5751 194.084 74.3568 194.976 74.3723C195.51 74.3815 196.042 74.5146 196.575 74.581C198.191 74.7817 199.806 74.9845 201.423 75.1717C202.563 75.3037 203.704 75.3282 204.844 75.1578C204.903 75.1489 204.964 75.1455 205.025 75.1438C205.042 75.1433 205.06 75.1575 205.122 75.1839C205.035 75.2452 204.982 75.3079 204.917 75.3242C204.632 75.396 204.343 75.4593 204.054 75.5164C203.812 75.5643 203.562 75.5802 203.324 75.6439C202.778 75.7909 202.234 75.7325 201.686 75.6689C201.228 75.6158 200.767 75.5737 200.306 75.5615C200.132 75.5569 199.957 75.6662 199.779 75.6936C199.584 75.7236 199.384 75.7231 199.186 75.7282C198.96 75.734 198.734 75.73 198.508 75.7326C198.267 75.7356 198.02 75.7115 197.785 75.7524C197.404 75.8188 197.03 75.9274 196.654 76.0203C196.279 76.1131 195.905 76.2106 195.529 76.3022C195.264 76.3669 194.997 76.426 194.731 76.4845C194.693 76.4928 194.644 76.4982 194.613 76.4817C194.467 76.405 194.387 76.4584 194.354 76.6277C194.185 76.5766 194.033 76.5305 193.88 76.4843C193.868 76.5021 193.857 76.5198 193.845 76.5376C194.491 76.9712 195.126 77.4234 195.787 77.8331C196.453 78.2454 197.212 78.426 197.981 78.5695C197.978 78.6016 197.974 78.6337 197.971 78.666C197.799 78.6917 197.62 78.762 197.458 78.7341C197.06 78.6655 196.67 78.551 196.276 78.4564C196.198 78.4376 196.132 78.3996 196.053 78.5001C196.01 78.5544 195.864 78.5442 195.767 78.536C195.526 78.5157 195.287 78.4706 195.046 78.4534C194.895 78.4426 194.741 78.4645 194.588 78.4709C194.529 78.4733 194.455 78.497 194.411 78.4709C194.052 78.2531 193.653 78.3347 193.274 78.3297C192.663 78.3215 192.051 78.3557 191.441 78.3994C190.846 78.442 190.284 78.3363 189.742 78.1029C189.018 77.7913 188.279 77.5338 187.508 77.3574C187.076 77.2584 186.641 77.1507 186.268 76.8623C185.933 76.6043 185.534 76.5984 185.135 76.7441C184.936 76.8167 184.732 76.8741 184.489 76.9515C184.554 76.6173 184.714 76.4015 184.963 76.2487Z" fill="#818494"/>
</g>
<g clip-path="url(#clip2_411_5)">
<path d="M154.116 70.5663C154.219 70.503 154.328 70.4463 154.441 70.4027C154.678 70.3105 154.842 70.1428 154.901 69.9029C154.989 69.5511 155.261 69.3959 155.557 69.3572C156.125 69.2832 156.479 68.9056 156.782 68.5101C157.008 68.215 157.093 67.8098 156.953 67.4134C156.921 67.3219 156.918 67.2481 156.955 67.1411C157.002 67.0073 156.95 66.8375 156.933 66.6841C156.767 65.1788 156.173 63.8334 155.386 62.5609C155.311 62.4406 155.237 62.3205 155.162 62.2009C154.968 61.8933 154.889 61.5611 154.844 61.1963C154.748 60.4249 154.719 59.6426 154.484 58.889C154.241 58.1101 154.259 57.3162 154.401 56.5142C154.474 56.0999 154.457 55.6703 154.5 55.2495C154.598 54.2843 154.824 53.3514 155.295 52.4953C155.505 52.1139 155.75 51.7512 155.992 51.3881C156.091 51.2385 156.209 51.0805 156.435 51.1638C156.554 51.2077 156.713 51.5106 156.703 51.6752C156.7 51.7218 156.677 51.769 156.682 51.8139C156.692 51.9084 156.715 52.0015 156.733 52.0952C156.759 52.2355 156.794 52.3749 156.811 52.5163C156.826 52.647 156.822 52.7802 156.826 52.9123C156.829 53.0666 156.841 53.2212 156.833 53.3748C156.82 53.6298 156.803 53.8742 156.931 54.1201C156.999 54.253 156.961 54.4379 156.992 54.5952C157.024 54.7611 157.086 54.9212 157.128 55.0852C157.192 55.3316 157.262 55.5772 157.308 55.8271C157.389 56.2619 157.44 56.7024 157.528 57.1359C157.642 57.7019 157.782 58.2625 157.905 58.827C157.957 59.0686 157.987 59.315 158.036 59.5573C158.053 59.6408 158.101 59.7176 158.129 59.7995C158.177 59.9404 158.22 60.0825 158.264 60.2249C158.271 60.2499 158.26 60.282 158.271 60.3047C158.411 60.6007 158.554 60.8952 158.695 61.1908C158.771 61.3513 158.846 61.513 158.92 61.6746C158.934 61.7049 158.938 61.7396 158.952 61.7697C159.251 62.3982 159.569 63.0185 159.844 63.657C160.148 64.3619 160.354 65.0946 160.444 65.8656C160.537 66.6513 160.691 67.4303 160.837 68.2086C160.882 68.4477 160.986 68.6769 161.075 68.906C161.132 69.0539 161.341 69.1328 161.505 69.0946C162.37 68.8927 163.238 68.6745 164.13 68.6899C164.664 68.6992 165.195 68.8322 165.729 68.8986C167.344 69.0993 168.96 69.3021 170.577 69.4893C171.716 69.6213 172.858 69.6459 173.997 69.4755C174.057 69.4665 174.117 69.4631 174.178 69.4614C174.195 69.4609 174.213 69.4751 174.275 69.5016C174.188 69.5628 174.135 69.6255 174.071 69.6419C173.785 69.7136 173.497 69.7769 173.207 69.834C172.965 69.8819 172.715 69.8978 172.478 69.9615C171.931 70.1085 171.388 70.0501 170.839 69.9865C170.381 69.9335 169.92 69.8913 169.46 69.8791C169.285 69.8745 169.111 69.9838 168.932 70.0112C168.737 70.0412 168.537 70.0407 168.34 70.0458C168.114 70.0517 167.888 70.0476 167.662 70.0503C167.42 70.0532 167.174 70.0291 166.938 70.07C166.558 70.1364 166.184 70.2451 165.808 70.338C165.432 70.4307 165.058 70.5283 164.682 70.6198C164.417 70.6845 164.151 70.7436 163.884 70.8021C163.847 70.8104 163.798 70.8158 163.766 70.7993C163.621 70.7226 163.54 70.776 163.507 70.9453C163.338 70.8942 163.186 70.8481 163.034 70.802C163.022 70.8197 163.01 70.8374 162.998 70.8552C163.644 71.2888 164.279 71.741 164.94 72.1507C165.606 72.563 166.366 72.7436 167.134 72.8872C167.131 72.9193 167.127 72.9514 167.124 72.9836C166.952 73.0093 166.773 73.0796 166.611 73.0517C166.213 72.9832 165.823 72.8687 165.43 72.774C165.351 72.7552 165.285 72.7172 165.206 72.8177C165.163 72.8721 165.018 72.8618 164.921 72.8537C164.68 72.8333 164.441 72.7882 164.2 72.771C164.048 72.7603 163.894 72.7822 163.742 72.7885C163.682 72.7909 163.608 72.8146 163.565 72.7885C163.206 72.5707 162.806 72.6524 162.427 72.6473C161.817 72.6391 161.204 72.6734 160.594 72.7171C159.999 72.7597 159.438 72.6539 158.895 72.4205C158.172 72.1089 157.432 71.8514 156.661 71.675C156.229 71.5761 155.795 71.4683 155.421 71.1799C155.087 70.9219 154.687 70.916 154.288 71.0617C154.089 71.1343 153.885 71.1917 153.642 71.2692C153.708 70.9349 153.868 70.7191 154.116 70.5663Z" fill="#818494"/>
</g>
<path d="M164.19 122.1C164.19 160.257 133.257 191.19 95.1 191.19C56.9425 191.19 26.0098 160.257 26.0098 122.1C26.0098 83.9424 56.9425 53.0097 95.1 53.0097C133.257 53.0097 164.19 83.9424 164.19 122.1Z" fill="url(#paint1_linear_411_5)"/>
<g filter="url(#filter1_i_411_5)">
<path d="M125.605 161.814C125.968 159.762 126.157 157.651 126.157 155.497C126.157 135.34 109.606 119 89.1901 119C74.0123 119 60.9709 128.031 55.2777 140.946C50.6656 137.015 44.6807 134.641 38.1405 134.641C23.5574 134.641 11.7355 146.443 11.7355 161C11.7355 161.811 11.7722 162.613 11.8439 163.405C4.82975 166.797 -4.64916e-06 173.914 -4.64916e-06 182.145C-4.64916e-06 193.663 9.45752 203 21.124 203H120.876C132.542 203 142 193.663 142 182.145C142 172.232 134.995 163.934 125.605 161.814Z" fill="url(#paint2_linear_411_5)"/>
</g>
<defs>
<filter id="filter0_i_411_5" x="71" y="20" width="142" height="94" filterUnits="userSpaceOnUse" color-interpolation-filters="sRGB">
<feFlood flood-opacity="0" result="BackgroundImageFix"/>
<feBlend mode="normal" in="SourceGraphic" in2="BackgroundImageFix" result="shape"/>
<feColorMatrix in="SourceAlpha" type="matrix" values="0 0 0 0 0 0 0 0 0 0 0 0 0 0 0 0 0 0 127 0" result="hardAlpha"/>
<feOffset dy="11"/>
<feGaussianBlur stdDeviation="5"/>
<feComposite in2="hardAlpha" operator="arithmetic" k2="-1" k3="1"/>
<feColorMatrix type="matrix" values="0 0 0 0 1 0 0 0 0 1 0 0 0 0 1 0 0 0 1 0"/>
<feBlend mode="normal" in2="shape" result="effect1_innerShadow_411_5"/>
</filter>
<filter id="filter1_i_411_5" x="0" y="119" width="142" height="94" filterUnits="userSpaceOnUse" color-interpolation-filters="sRGB">
<feFlood flood-opacity="0" result="BackgroundImageFix"/>
<feBlend mode="normal" in="SourceGraphic" in2="BackgroundImageFix" result="shape"/>
<feColorMatrix in="SourceAlpha" type="matrix" values="0 0 0 0 0 0 0 0 0 0 0 0 0 0 0 0 0 0 127 0" result="hardAlpha"/>
<feOffset dy="11"/>
<feGaussianBlur stdDeviation="5"/>
<feComposite in2="hardAlpha" operator="arithmetic" k2="-1" k3="1"/>
<feColorMatrix type="matrix" values="0 0 0 0 1 0 0 0 0 1 0 0 0 0 1 0 0 0 1 0"/>
<feBlend mode="normal" in2="shape" result="effect1_innerShadow_411_5"/>
</filter>
<linearGradient id="paint0_linear_411_5" x1="80.0318" y1="96.5" x2="222.923" y2="-10.7335" gradientUnits="userSpaceOnUse">
<stop stop-color="white"/>
<stop offset="1" stop-color="white" stop-opacity="0.58"/>
</linearGradient>
<linearGradient id="paint1_linear_411_5" x1="122.932" y1="59.4063" x2="64.723" y2="191.175" gradientUnits="userSpaceOnUse">
<stop stop-color="#FFD88B"/>
<stop offset="1" stop-color="#FFA900"/>
</linearGradient>
<linearGradient id="paint2_linear_411_5" x1="9.0318" y1="195.5" x2="151.923" y2="88.2665" gradientUnits="userSpaceOnUse">
<stop stop-color="white"/>
<stop offset="1" stop-color="white" stop-opacity="0.58"/>
</linearGradient>
<clipPath id="clip0_411_5">
<rect width="44.6467" height="44.6467" fill="white" transform="matrix(-1 0 0 1 200.082 0)"/>
</clipPath>
<clipPath id="clip1_411_5">
<rect width="21.9175" height="21.9175" fill="white" transform="matrix(-1 0 0 1 205.764 56.8231)"/>
</clipPath>
<clipPath id="clip2_411_5">
<rect width="21.9175" height="21.9175" fill="white" transform="matrix(-1 0 0 1 174.917 51.1408)"/>
</clipPath>
</defs>
</svg>
